<svg xmlns:xlink="http://www.w3.org/1999/xlink" xmlns="http://www.w3.org/2000/svg" aria-hidden="true" height="492" viewBox="-1 -1 802 402" width="982"><g data-testid="globe-wireframe"><circle cx="400" cy="400" fill="#FAFAFA" r="400"></circle><path d="M 400 800 A -400 400 0 0 0 400 0" fill="none" stroke="url(&quot;#globe-gradient&quot;)" stroke-width="1" vector-effect="non-scaling-stroke"></path><path d="M 400 800 A -328.701 400 0 0 0 400 0" fill="none" stroke="url(&quot;#globe-gradient&quot;)" stroke-width="1" vector-effect="non-scaling-stroke"></path><path d="M 400 800 A -235.355 400 0 0 0 400 0" fill="none" stroke="url(&quot;#globe-gradient&quot;)" stroke-width="1" vector-effect="non-scaling-stroke"></path><path d="M 400 800 A -123.097 400 0 0 0 400 0" fill="none" stroke="url(&quot;#globe-gradient&quot;)" stroke-width="1" vector-effect="non-scaling-stroke"></path><path d="M 400 800 A 0 400 0 0 0 400 0" fill="none" stroke="url(&quot;#globe-gradient&quot;)" stroke-width="1" vector-effect="non-scaling-stroke"></path><path d="M 400 0 A 123.097 400 0 0 0 400 800" fill="none" stroke="url(&quot;#globe-gradient&quot;)" stroke-width="1" vector-effect="non-scaling-stroke"></path><path d="M 400 0 A 235.355 400 0 0 0 400 800" fill="none" stroke="url(&quot;#globe-gradient&quot;)" stroke-width="1" vector-effect="non-scaling-stroke"></path><path d="M 400 0 A 328.701 400 0 0 0 400 800" fill="none" stroke="url(&quot;#globe-gradient&quot;)" stroke-width="1" vector-effect="non-scaling-stroke"></path><path d="M 400 0 A 400 400 0 0 0 400 800" fill="none" stroke="url(&quot;#globe-gradient&quot;)" stroke-width="1" vector-effect="non-scaling-stroke"></path><path d="M160,80 h480" fill="none" stroke="url(&quot;#globe-gradient&quot;)" stroke-width="1" vector-effect="non-scaling-stroke"></path><path d="M80,160 h640" fill="none" stroke="url(&quot;#globe-gradient&quot;)" stroke-width="1" vector-effect="non-scaling-stroke"></path><path d="M33.394,240 h733.212" fill="none" stroke="url(&quot;#globe-gradient&quot;)" stroke-width="1" vector-effect="non-scaling-stroke"></path><path d="M8.082,320 h783.837" fill="none" stroke="url(&quot;#globe-gradient&quot;)" stroke-width="1" vector-effect="non-scaling-stroke"></path><path d="M0,400 h800" fill="none" stroke="url(&quot;#globe-gradient&quot;)" stroke-width="1" vector-effect="non-scaling-stroke"></path><path d="M8.082,480 h783.837" fill="none" stroke="url(&quot;#globe-gradient&quot;)" stroke-width="1" vector-effect="non-scaling-stroke"></path><path d="M33.394,560 h733.212" fill="none" stroke="url(&quot;#globe-gradient&quot;)" stroke-width="1" vector-effect="non-scaling-stroke"></path><path d="M80,640 h640" fill="none" stroke="url(&quot;#globe-gradient&quot;)" stroke-width="1" vector-effect="non-scaling-stroke"></path></g><g data-testid="globe-nodes"><g data-testid="deploy-node-3-5-ddd"><g opacity="1"><g id="ddd35"><path d="M 597.221 80 A 328.701 400 0 0 0 400 0M 662.961 160 A 328.701 400 0 0 0 597.221 80M 701.26 240 A 328.701 400 0 0 0 662.961 160" fill="none" stroke="url(&quot;#ddd35-gradient&quot;)" stroke-linecap="round" stroke-width="2px" vector-effect="non-scaling-stroke"><animate attributeName="opacity" dur="4.5s" id="opacity-ddd35" keyTimes="0;0.133;0.267;0.4;0.533;0.667;1" repeatCount="indefinite" values="0;1;1;1;1;0;0" stroke="url(&quot;#ddd35-gradient&quot;)" fill="none" stroke-width="2px"></animate></path><defs><radialGradient cx="100" cy="100" gradientUnits="userSpaceOnUse" id="ddd35-gradient" r="0"><stop offset="0" stop-color="#45DEC4"></stop><stop offset="0.4" stop-color="#45DEC4"></stop><stop offset="1" stop-color="#45DEC4" stop-opacity="0"></stop><animate attributeName="cx" dur="4.5s" id="cx-ddd35" keyTimes="0;0.133;0.267;0.4;0.533;0.667;1" repeatCount="indefinite" values="400;400;597.221;662.961;701.26;701.26;0"></animate><animate attributeName="cy" dur="4.5s" id="cy-ddd35" keyTimes="0;0.133;0.267;0.4;0.533;0.667;1" repeatCount="indefinite" values="0;0;80;160;240;240;0"></animate><animate attributeName="r" dur="4.5s" id="r-ddd35" keyTimes="0;0.133;0.267;0.4;0.533;0.667;1" repeatCount="indefinite" values="0;120;120;120;120;0;0"></animate></radialGradient><linearGradient gradientUnits="userSpaceOnUse" id="globe-gradient" x1="0" x2="0" y1="0" y2="400"><stop offset="0%" stop-color="var(--guide-color)"></stop><stop offset="100%" stop-color="var(--guide-color)"></stop></linearGradient><linearGradient gradientUnits="userSpaceOnUse" id="globe-gradient" x1="0" x2="0" y1="0" y2="400"><stop offset="0%" stop-color="var(--guide-color)"></stop><stop offset="100%" stop-color="var(--guide-color)"></stop></linearGradient><linearGradient gradientUnits="userSpaceOnUse" id="globe-gradient" x1="0" x2="0" y1="0" y2="400"><stop offset="0%" stop-color="var(--guide-color)"></stop><stop offset="100%" stop-color="var(--guide-color)"></stop></linearGradient><linearGradient gradientUnits="userSpaceOnUse" id="globe-gradient" x1="0" x2="0" y1="0" y2="400"><stop offset="0%" stop-color="var(--guide-color)"></stop><stop offset="100%" stop-color="var(--guide-color)"></stop></linearGradient><linearGradient gradientUnits="userSpaceOnUse" id="globe-gradient" x1="0" x2="0" y1="0" y2="400"><stop offset="0%" stop-color="var(--guide-color)"></stop><stop offset="100%" stop-color="var(--guide-color)"></stop></linearGradient><linearGradient gradientUnits="userSpaceOnUse" id="globe-gradient" x1="0" x2="0" y1="0" y2="400"><stop offset="0%" stop-color="var(--guide-color)"></stop><stop offset="100%" stop-color="var(--guide-color)"></stop></linearGradient><linearGradient gradientUnits="userSpaceOnUse" id="globe-gradient" x1="0" x2="0" y1="0" y2="400"><stop offset="0%" stop-color="var(--guide-color)"></stop><stop offset="100%" stop-color="var(--guide-color)"></stop></linearGradient><linearGradient gradientUnits="userSpaceOnUse" id="globe-gradient" x1="0" x2="0" y1="0" y2="400"><stop offset="0%" stop-color="var(--guide-color)"></stop><stop offset="100%" stop-color="var(--guide-color)"></stop></linearGradient><linearGradient gradientUnits="userSpaceOnUse" id="globe-gradient" x1="0" x2="0" y1="0" y2="400"><stop offset="0%" stop-color="var(--guide-color)"></stop><stop offset="100%" stop-color="var(--guide-color)"></stop></linearGradient><linearGradient gradientUnits="userSpaceOnUse" id="globe-gradient" x1="0" x2="0" y1="0" y2="400"><stop offset="0%" stop-color="var(--guide-color)"></stop><stop offset="100%" stop-color="var(--guide-color)"></stop></linearGradient><linearGradient gradientUnits="userSpaceOnUse" id="globe-gradient" x1="0" x2="0" y1="0" y2="400"><stop offset="0%" stop-color="var(--guide-color)"></stop><stop offset="100%" stop-color="var(--guide-color)"></stop></linearGradient><linearGradient gradientUnits="userSpaceOnUse" id="globe-gradient" x1="0" x2="0" y1="0" y2="400"><stop offset="0%" stop-color="var(--guide-color)"></stop><stop offset="100%" stop-color="var(--guide-color)"></stop></linearGradient><linearGradient gradientUnits="userSpaceOnUse" id="globe-gradient" x1="0" x2="0" y1="0" y2="400"><stop offset="0%" stop-color="var(--guide-color)"></stop><stop offset="100%" stop-color="var(--guide-color)"></stop></linearGradient><linearGradient gradientUnits="userSpaceOnUse" id="globe-gradient" x1="0" x2="0" y1="0" y2="400"><stop offset="0%" stop-color="var(--guide-color)"></stop><stop offset="100%" stop-color="var(--guide-color)"></stop></linearGradient><linearGradient gradientUnits="userSpaceOnUse" id="globe-gradient" x1="0" x2="0" y1="0" y2="400"><stop offset="0%" stop-color="var(--guide-color)"></stop><stop offset="100%" stop-color="var(--guide-color)"></stop></linearGradient><linearGradient gradientUnits="userSpaceOnUse" id="globe-gradient" x1="0" x2="0" y1="0" y2="400"><stop offset="0%" stop-color="var(--guide-color)"></stop><stop offset="100%" stop-color="var(--guide-color)"></stop></linearGradient><linearGradient gradientUnits="userSpaceOnUse" id="globe-gradient" x1="0" x2="0" y1="0" y2="400"><stop offset="0%" stop-color="var(--guide-color)"></stop><stop offset="100%" stop-color="var(--guide-color)"></stop></linearGradient><radialGradient cx="100" cy="100" gradientUnits="userSpaceOnUse" id="ddd35-gradient" r="0"><stop offset="0" stop-color="#45DEC4"></stop><stop offset="0.4" stop-color="#45DEC4"></stop><stop offset="1" stop-color="#45DEC4" stop-opacity="0"></stop><animate attributeName="cx" dur="4.5s" id="cx-ddd35" keyTimes="0;0.133;0.267;0.4;0.533;0.667;1" repeatCount="indefinite" values="400;400;597.221;662.961;701.26;701.26;0"></animate><animate attributeName="cy" dur="4.5s" id="cy-ddd35" keyTimes="0;0.133;0.267;0.4;0.533;0.667;1" repeatCount="indefinite" values="0;0;80;160;240;240;0"></animate><animate attributeName="r" dur="4.5s" id="r-ddd35" keyTimes="0;0.133;0.267;0.4;0.533;0.667;1" repeatCount="indefinite" values="0;120;120;120;120;0;0"></animate></radialGradient><radialGradient cx="100" cy="100" gradientUnits="userSpaceOnUse" id="ddd35-gradient" r="0"><stop offset="0" stop-color="#45DEC4"></stop><stop offset="0.4" stop-color="#45DEC4"></stop><stop offset="1" stop-color="#45DEC4" stop-opacity="0"></stop><animate attributeName="cx" dur="4.5s" id="cx-ddd35" keyTimes="0;0.133;0.267;0.4;0.533;0.667;1" repeatCount="indefinite" values="400;400;597.221;662.961;701.26;701.26;0"></animate><animate attributeName="cy" dur="4.5s" id="cy-ddd35" keyTimes="0;0.133;0.267;0.4;0.533;0.667;1" repeatCount="indefinite" values="0;0;80;160;240;240;0"></animate><animate attributeName="r" dur="4.5s" id="r-ddd35" keyTimes="0;0.133;0.267;0.4;0.533;0.667;1" repeatCount="indefinite" values="0;120;120;120;120;0;0"></animate></radialGradient><linearGradient gradientUnits="userSpaceOnUse" id="globe-gradient" x1="0" x2="0" y1="0" y2="400"><stop offset="0%" stop-color="var(--guide-color)"></stop><stop offset="100%" stop-color="var(--guide-color)"></stop></linearGradient><radialGradient cx="100" cy="100" gradientUnits="userSpaceOnUse" id="dddd-35-gradient" r="0"><stop offset="0" stop-color="#45DEC4"></stop><stop offset="0.4" stop-color="#45DEC4"></stop><stop offset="1" stop-color="#45DEC4" stop-opacity="0"></stop><animate attributeName="cx" dur="4.5s" id="cx-dddd-35" keyTimes="0;0.111;0.222;0.333;0.444;0.556;0.667;1" repeatCount="indefinite" values="400;400;202.779;137.039;98.74;77.94;77.94;0"></animate><animate attributeName="cy" dur="4.5s" id="cy-dddd-35" keyTimes="0;0.111;0.222;0.333;0.444;0.556;0.667;1" repeatCount="indefinite" values="0;0;80;160;240;320;320;0"></animate><animate attributeName="r" dur="4.5s" id="r-dddd-35" keyTimes="0;0.111;0.222;0.333;0.444;0.556;0.667;1" repeatCount="indefinite" values="0;120;120;120;120;120;0;0"></animate></radialGradient><radialGradient cx="100" cy="100" gradientUnits="userSpaceOnUse" id="dddd-35-gradient" r="0"><stop offset="0" stop-color="#45DEC4"></stop><stop offset="0.4" stop-color="#45DEC4"></stop><stop offset="1" stop-color="#45DEC4" stop-opacity="0"></stop><animate attributeName="cx" dur="4.5s" id="cx-dddd-35" keyTimes="0;0.111;0.222;0.333;0.444;0.556;0.667;1" repeatCount="indefinite" values="400;400;202.779;137.039;98.74;77.94;77.94;0"></animate><animate attributeName="cy" dur="4.5s" id="cy-dddd-35" keyTimes="0;0.111;0.222;0.333;0.444;0.556;0.667;1" repeatCount="indefinite" values="0;0;80;160;240;320;320;0"></animate><animate attributeName="r" dur="4.5s" id="r-dddd-35" keyTimes="0;0.111;0.222;0.333;0.444;0.556;0.667;1" repeatCount="indefinite" values="0;120;120;120;120;120;0;0"></animate></radialGradient><linearGradient gradientUnits="userSpaceOnUse" id="globe-gradient" x1="0" x2="0" y1="0" y2="400"><stop offset="0%" stop-color="var(--guide-color)"></stop><stop offset="100%" stop-color="var(--guide-color)"></stop></linearGradient><radialGradient cx="100" cy="100" gradientUnits="userSpaceOnUse" id="dd15-gradient" r="0"><stop offset="0" stop-color="#45DEC4"></stop><stop offset="0.4" stop-color="#45DEC4"></stop><stop offset="1" stop-color="#45DEC4" stop-opacity="0"></stop><animate attributeName="cx" dur="4.5s" id="cx-dd15" keyTimes="0;0.167;0.333;0.5;0.667;1" repeatCount="indefinite" values="400;400;473.858;498.478;498.478;0"></animate><animate attributeName="cy" dur="4.5s" id="cy-dd15" keyTimes="0;0.167;0.333;0.5;0.667;1" repeatCount="indefinite" values="0;0;80;160;160;0"></animate><animate attributeName="r" dur="4.5s" id="r-dd15" keyTimes="0;0.167;0.333;0.5;0.667;1" repeatCount="indefinite" values="0;120;120;120;0;0"></animate></radialGradient><radialGradient cx="100" cy="100" gradientUnits="userSpaceOnUse" id="dd15-gradient" r="0"><stop offset="0" stop-color="#45DEC4"></stop><stop offset="0.4" stop-color="#45DEC4"></stop><stop offset="1" stop-color="#45DEC4" stop-opacity="0"></stop><animate attributeName="cx" dur="4.5s" id="cx-dd15" keyTimes="0;0.167;0.333;0.5;0.667;1" repeatCount="indefinite" values="400;400;473.858;498.478;498.478;0"></animate><animate attributeName="cy" dur="4.5s" id="cy-dd15" keyTimes="0;0.167;0.333;0.5;0.667;1" repeatCount="indefinite" values="0;0;80;160;160;0"></animate><animate attributeName="r" dur="4.5s" id="r-dd15" keyTimes="0;0.167;0.333;0.5;0.667;1" repeatCount="indefinite" values="0;120;120;120;0;0"></animate></radialGradient><linearGradient gradientUnits="userSpaceOnUse" id="globe-gradient" x1="0" x2="0" y1="0" y2="400"><stop offset="0%" stop-color="var(--guide-color)"></stop><stop offset="100%" stop-color="var(--guide-color)"></stop></linearGradient><radialGradient cx="100" cy="100" gradientUnits="userSpaceOnUse" id="dl-15-gradient" r="0"><stop offset="0" stop-color="#45DEC4"></stop><stop offset="0.4" stop-color="#45DEC4"></stop><stop offset="1" stop-color="#45DEC4" stop-opacity="0"></stop><animate attributeName="cx" dur="4.5s" id="cx-dl-15" keyTimes="0;0.167;0.333;0.5;0.667;1" repeatCount="indefinite" values="400;400;326.142;258.787;258.787;0"></animate><animate attributeName="cy" dur="4.5s" id="cy-dl-15" keyTimes="0;0.167;0.333;0.5;0.667;1" repeatCount="indefinite" values="0;0;80;80;80;0"></animate><animate attributeName="r" dur="4.5s" id="r-dl-15" keyTimes="0;0.167;0.333;0.5;0.667;1" repeatCount="indefinite" values="0;120;120;120;0;0"></animate></radialGradient><radialGradient cx="100" cy="100" gradientUnits="userSpaceOnUse" id="dl-15-gradient" r="0"><stop offset="0" stop-color="#45DEC4"></stop><stop offset="0.4" stop-color="#45DEC4"></stop><stop offset="1" stop-color="#45DEC4" stop-opacity="0"></stop><animate attributeName="cx" dur="4.5s" id="cx-dl-15" keyTimes="0;0.167;0.333;0.5;0.667;1" repeatCount="indefinite" values="400;400;326.142;258.787;258.787;0"></animate><animate attributeName="cy" dur="4.5s" id="cy-dl-15" keyTimes="0;0.167;0.333;0.5;0.667;1" repeatCount="indefinite" values="0;0;80;80;80;0"></animate><animate attributeName="r" dur="4.5s" id="r-dl-15" keyTimes="0;0.167;0.333;0.5;0.667;1" repeatCount="indefinite" values="0;120;120;120;0;0"></animate></radialGradient><linearGradient gradientUnits="userSpaceOnUse" id="globe-gradient" x1="0" x2="0" y1="0" y2="400"><stop offset="0%" stop-color="var(--guide-color)"></stop><stop offset="100%" stop-color="var(--guide-color)"></stop></linearGradient><radialGradient cx="100" cy="100" gradientUnits="userSpaceOnUse" id="dddl05-gradient" r="0"><stop offset="0" stop-color="#45DEC4"></stop><stop offset="0.4" stop-color="#45DEC4"></stop><stop offset="1" stop-color="#45DEC4" stop-opacity="0"></stop><animate attributeName="cx" dur="4.5s" id="cx-dddl05" keyTimes="0;0.111;0.222;0.333;0.444;0.556;0.667;1" repeatCount="indefinite" values="400;400;400;400;400;287.18;287.18;0"></animate><animate attributeName="cy" dur="4.5s" id="cy-dddl05" keyTimes="0;0.111;0.222;0.333;0.444;0.556;0.667;1" repeatCount="indefinite" values="0;0;80;160;240;240;240;0"></animate><animate attributeName="r" dur="4.5s" id="r-dddl05" keyTimes="0;0.111;0.222;0.333;0.444;0.556;0.667;1" repeatCount="indefinite" values="0;120;120;120;120;120;0;0"></animate></radialGradient><radialGradient cx="100" cy="100" gradientUnits="userSpaceOnUse" id="dddl05-gradient" r="0"><stop offset="0" stop-color="#45DEC4"></stop><stop offset="0.4" stop-color="#45DEC4"></stop><stop offset="1" stop-color="#45DEC4" stop-opacity="0"></stop><animate attributeName="cx" dur="4.5s" id="cx-dddl05" keyTimes="0;0.111;0.222;0.333;0.444;0.556;0.667;1" repeatCount="indefinite" values="400;400;400;400;400;287.18;287.18;0"></animate><animate attributeName="cy" dur="4.5s" id="cy-dddl05" keyTimes="0;0.111;0.222;0.333;0.444;0.556;0.667;1" repeatCount="indefinite" values="0;0;80;160;240;240;240;0"></animate><animate attributeName="r" dur="4.5s" id="r-dddl05" keyTimes="0;0.111;0.222;0.333;0.444;0.556;0.667;1" repeatCount="indefinite" values="0;120;120;120;120;120;0;0"></animate></radialGradient><linearGradient gradientUnits="userSpaceOnUse" id="globe-gradient" x1="0" x2="0" y1="0" y2="400"><stop offset="0%" stop-color="var(--guide-color)"></stop><stop offset="100%" stop-color="var(--guide-color)"></stop></linearGradient></defs></g></g><g data-testid="node"><g opacity="1"><circle cx="701.2596786376284" cy="240" fill="none" r="0" stroke="#45DEC4" stroke-width="2px"><animate attributeName="r" dur="4.5s" id="r-:R33aikdtmaenla:-r-pulse" keyTimes="0;0.167;0.333;0.5;0.667;1" repeatCount="indefinite" values="0;12;18;24;0;0" stroke="#45DEC4" fill="none" stroke-width="2px"></animate><animate attributeName="opacity" dur="4.5s" id="opacity-:R33aikdtmaenla:-opacity-pulse" keyTimes="0;0.167;0.333;0.5;0.667;1" repeatCount="indefinite" values="0;1;0.5;0;0;0" stroke="#45DEC4" fill="none" stroke-width="2px"></animate></circle></g><circle class="node_node__OmZxm" cx="701.2596786376284" cy="240" fill="#FFFFFF" r="16" stroke="url(&quot;#globe-gradient&quot;)"></circle><path class="node_icon__JUJP9" clip-rule="evenodd" d="M8.5 0C8.5 0 4.58642 3.74805 3.94122 4.39717C3.86128 4.4776 3.84989 4.60224 3.91398 4.69539C3.97806 4.78854 4.09993 4.82451 4.20557 4.78145L7.90537 3.27345L11.7747 9.36041C11.8406 9.46403 11.9758 9.50133 12.0869 9.44651C12.1979 9.39169 12.2483 9.26276 12.2032 9.1489C11.7103 7.90508 8.5 0 8.5 0ZM6.29304 6.03867C6.35522 5.93334 6.32602 5.79881 6.22554 5.72763C6.12505 5.65645 5.98605 5.67185 5.90418 5.76322C5.12486 6.633 0 12.5 0 12.5C0 12.5 5.18613 13.803 6.03089 13.9939C6.14204 14.0191 6.25587 13.964 6.30355 13.8621C6.35122 13.7603 6.31967 13.6394 6.22796 13.5728L3.1616 11.3431L6.29304 6.03867ZM14.054 7.5893C14.016 7.47964 13.9029 7.4131 13.7867 7.43203C13.6705 7.45096 13.5853 7.5498 13.5853 7.66564V11.3824L6.45275 11.5197C6.32824 11.5221 6.22613 11.6175 6.2173 11.7396C6.20846 11.8618 6.2958 11.9704 6.41871 11.9901C7.68171 12.1927 16 13.5728 16 13.5728C16 13.5728 14.3311 8.38966 14.054 7.5893Z" fill="#666666" fill-rule="evenodd" transform="translate(693.2596786376284, 232) "></path><circle class="node_dot__GSOQ_" cx="701.2596786376284" cy="240" fill="#666666" r="8"></circle></g></g><g data-testid="deploy-node--3-5-dddd"><g opacity="1"><g id="dddd-35"><path d="M 400 0 A -328.701 400 0 0 0 202.779 80M 202.779 80 A -328.701 400 0 0 0 137.039 160M 137.039 160 A -328.701 400 0 0 0 98.74 240M 98.74 240 A -328.701 400 0 0 0 77.94 320" fill="none" stroke="url(&quot;#dddd-35-gradient&quot;)" stroke-linecap="round" stroke-width="2px" vector-effect="non-scaling-stroke"><animate attributeName="opacity" dur="4.5s" id="opacity-dddd-35" keyTimes="0;0.111;0.222;0.333;0.444;0.556;0.667;1" repeatCount="indefinite" values="0;1;1;1;1;1;0;0" stroke="url(&quot;#dddd-35-gradient&quot;)" fill="none" stroke-width="2px"></animate></path><defs><radialGradient cx="100" cy="100" gradientUnits="userSpaceOnUse" id="dddd-35-gradient" r="0"><stop offset="0" stop-color="#45DEC4"></stop><stop offset="0.4" stop-color="#45DEC4"></stop><stop offset="1" stop-color="#45DEC4" stop-opacity="0"></stop><animate attributeName="cx" dur="4.5s" id="cx-dddd-35" keyTimes="0;0.111;0.222;0.333;0.444;0.556;0.667;1" repeatCount="indefinite" values="400;400;202.779;137.039;98.74;77.94;77.94;0"></animate><animate attributeName="cy" dur="4.5s" id="cy-dddd-35" keyTimes="0;0.111;0.222;0.333;0.444;0.556;0.667;1" repeatCount="indefinite" values="0;0;80;160;240;320;320;0"></animate><animate attributeName="r" dur="4.5s" id="r-dddd-35" keyTimes="0;0.111;0.222;0.333;0.444;0.556;0.667;1" repeatCount="indefinite" values="0;120;120;120;120;120;0;0"></animate></radialGradient></defs></g></g><g data-testid="node"><g opacity="1"><circle cx="77.93985659667823" cy="320" fill="none" r="0" stroke="#45DEC4" stroke-width="2px"><animate attributeName="r" dur="4.5s" id="r-:R35aikdtmaenla:-r-pulse" keyTimes="0;0.167;0.333;0.5;0.667;1" repeatCount="indefinite" values="0;12;18;24;0;0" stroke="#45DEC4" fill="none" stroke-width="2px"></animate><animate attributeName="opacity" dur="4.5s" id="opacity-:R35aikdtmaenla:-opacity-pulse" keyTimes="0;0.167;0.333;0.5;0.667;1" repeatCount="indefinite" values="0;1;0.5;0;0;0" stroke="#45DEC4" fill="none" stroke-width="2px"></animate></circle></g><circle class="node_node__OmZxm" cx="77.93985659667823" cy="320" fill="#FFFFFF" r="16" stroke="url(&quot;#globe-gradient&quot;)"></circle><path class="node_icon__JUJP9" clip-rule="evenodd" d="M8.5 0C8.5 0 4.58642 3.74805 3.94122 4.39717C3.86128 4.4776 3.84989 4.60224 3.91398 4.69539C3.97806 4.78854 4.09993 4.82451 4.20557 4.78145L7.90537 3.27345L11.7747 9.36041C11.8406 9.46403 11.9758 9.50133 12.0869 9.44651C12.1979 9.39169 12.2483 9.26276 12.2032 9.1489C11.7103 7.90508 8.5 0 8.5 0ZM6.29304 6.03867C6.35522 5.93334 6.32602 5.79881 6.22554 5.72763C6.12505 5.65645 5.98605 5.67185 5.90418 5.76322C5.12486 6.633 0 12.5 0 12.5C0 12.5 5.18613 13.803 6.03089 13.9939C6.14204 14.0191 6.25587 13.964 6.30355 13.8621C6.35122 13.7603 6.31967 13.6394 6.22796 13.5728L3.1616 11.3431L6.29304 6.03867ZM14.054 7.5893C14.016 7.47964 13.9029 7.4131 13.7867 7.43203C13.6705 7.45096 13.5853 7.5498 13.5853 7.66564V11.3824L6.45275 11.5197C6.32824 11.5221 6.22613 11.6175 6.2173 11.7396C6.20846 11.8618 6.2958 11.9704 6.41871 11.9901C7.68171 12.1927 16 13.5728 16 13.5728C16 13.5728 14.3311 8.38966 14.054 7.5893Z" fill="#666666" fill-rule="evenodd" transform="translate(69.93985659667823, 312) "></path><circle class="node_dot__GSOQ_" cx="77.93985659667823" cy="320" fill="#666666" r="8"></circle></g></g><g data-testid="deploy-node-1-5-dd"><g opacity="1"><g id="dd15"><path d="M 473.858 80 A 123.097 400 0 0 0 400 0M 498.478 160 A 123.097 400 0 0 0 473.858 80" fill="none" stroke="url(&quot;#dd15-gradient&quot;)" stroke-linecap="round" stroke-width="2px" vector-effect="non-scaling-stroke"><animate attributeName="opacity" dur="4.5s" id="opacity-dd15" keyTimes="0;0.167;0.333;0.5;0.667;1" repeatCount="indefinite" values="0;1;1;1;0;0" stroke="url(&quot;#dd15-gradient&quot;)" fill="none" stroke-width="2px"></animate></path><defs><radialGradient cx="100" cy="100" gradientUnits="userSpaceOnUse" id="dd15-gradient" r="0"><stop offset="0" stop-color="#45DEC4"></stop><stop offset="0.4" stop-color="#45DEC4"></stop><stop offset="1" stop-color="#45DEC4" stop-opacity="0"></stop><animate attributeName="cx" dur="4.5s" id="cx-dd15" keyTimes="0;0.167;0.333;0.5;0.667;1" repeatCount="indefinite" values="400;400;473.858;498.478;498.478;0"></animate><animate attributeName="cy" dur="4.5s" id="cy-dd15" keyTimes="0;0.167;0.333;0.5;0.667;1" repeatCount="indefinite" values="0;0;80;160;160;0"></animate><animate attributeName="r" dur="4.5s" id="r-dd15" keyTimes="0;0.167;0.333;0.5;0.667;1" repeatCount="indefinite" values="0;120;120;120;0;0"></animate></radialGradient></defs></g></g><g data-testid="node"><g opacity="1"><circle cx="498.47759065022575" cy="160" fill="none" r="0" stroke="#45DEC4" stroke-width="2px"><animate attributeName="r" dur="4.5s" id="r-:R37aikdtmaenla:-r-pulse" keyTimes="0;0.167;0.333;0.5;0.667;1" repeatCount="indefinite" values="0;12;18;24;0;0" stroke="#45DEC4" fill="none" stroke-width="2px"></animate><animate attributeName="opacity" dur="4.5s" id="opacity-:R37aikdtmaenla:-opacity-pulse" keyTimes="0;0.167;0.333;0.5;0.667;1" repeatCount="indefinite" values="0;1;0.5;0;0;0" stroke="#45DEC4" fill="none" stroke-width="2px"></animate></circle></g><circle class="node_node__OmZxm" cx="498.47759065022575" cy="160" fill="#FFFFFF" r="16" stroke="url(&quot;#globe-gradient&quot;)"></circle><path class="node_icon__JUJP9" clip-rule="evenodd" d="M8.5 0C8.5 0 4.58642 3.74805 3.94122 4.39717C3.86128 4.4776 3.84989 4.60224 3.91398 4.69539C3.97806 4.78854 4.09993 4.82451 4.20557 4.78145L7.90537 3.27345L11.7747 9.36041C11.8406 9.46403 11.9758 9.50133 12.0869 9.44651C12.1979 9.39169 12.2483 9.26276 12.2032 9.1489C11.7103 7.90508 8.5 0 8.5 0ZM6.29304 6.03867C6.35522 5.93334 6.32602 5.79881 6.22554 5.72763C6.12505 5.65645 5.98605 5.67185 5.90418 5.76322C5.12486 6.633 0 12.5 0 12.5C0 12.5 5.18613 13.803 6.03089 13.9939C6.14204 14.0191 6.25587 13.964 6.30355 13.8621C6.35122 13.7603 6.31967 13.6394 6.22796 13.5728L3.1616 11.3431L6.29304 6.03867ZM14.054 7.5893C14.016 7.47964 13.9029 7.4131 13.7867 7.43203C13.6705 7.45096 13.5853 7.5498 13.5853 7.66564V11.3824L6.45275 11.5197C6.32824 11.5221 6.22613 11.6175 6.2173 11.7396C6.20846 11.8618 6.2958 11.9704 6.41871 11.9901C7.68171 12.1927 16 13.5728 16 13.5728C16 13.5728 14.3311 8.38966 14.054 7.5893Z" fill="#666666" fill-rule="evenodd" transform="translate(490.47759065022575, 152) "></path><circle class="node_dot__GSOQ_" cx="498.47759065022575" cy="160" fill="#666666" r="8"></circle></g></g><g data-testid="deploy-node--1-5-dl"><g opacity="1"><g id="dl-15"><path d="M 400 0 A -123.097 400 0 0 0 326.142 80M326.142,80 h-67.355" fill="none" stroke="url(&quot;#dl-15-gradient&quot;)" stroke-linecap="round" stroke-width="2px" vector-effect="non-scaling-stroke"><animate attributeName="opacity" dur="4.5s" id="opacity-dl-15" keyTimes="0;0.167;0.333;0.5;0.667;1" repeatCount="indefinite" values="0;1;1;1;0;0" stroke="url(&quot;#dl-15-gradient&quot;)" fill="none" stroke-width="2px"></animate></path><defs><radialGradient cx="100" cy="100" gradientUnits="userSpaceOnUse" id="dl-15-gradient" r="0"><stop offset="0" stop-color="#45DEC4"></stop><stop offset="0.4" stop-color="#45DEC4"></stop><stop offset="1" stop-color="#45DEC4" stop-opacity="0"></stop><animate attributeName="cx" dur="4.5s" id="cx-dl-15" keyTimes="0;0.167;0.333;0.5;0.667;1" repeatCount="indefinite" values="400;400;326.142;258.787;258.787;0"></animate><animate attributeName="cy" dur="4.5s" id="cy-dl-15" keyTimes="0;0.167;0.333;0.5;0.667;1" repeatCount="indefinite" values="0;0;80;80;80;0"></animate><animate attributeName="r" dur="4.5s" id="r-dl-15" keyTimes="0;0.167;0.333;0.5;0.667;1" repeatCount="indefinite" values="0;120;120;120;0;0"></animate></radialGradient></defs></g></g><g data-testid="node"><g opacity="1"><circle cx="258.7867965644036" cy="80" fill="none" r="0" stroke="#45DEC4" stroke-width="2px"><animate attributeName="r" dur="4.5s" id="r-:R39aikdtmaenla:-r-pulse" keyTimes="0;0.167;0.333;0.5;0.667;1" repeatCount="indefinite" values="0;12;18;24;0;0" stroke="#45DEC4" fill="none" stroke-width="2px"></animate><animate attributeName="opacity" dur="4.5s" id="opacity-:R39aikdtmaenla:-opacity-pulse" keyTimes="0;0.167;0.333;0.5;0.667;1" repeatCount="indefinite" values="0;1;0.5;0;0;0" stroke="#45DEC4" fill="none" stroke-width="2px"></animate></circle></g><circle class="node_node__OmZxm" cx="258.7867965644036" cy="80" fill="#FFFFFF" r="16" stroke="url(&quot;#globe-gradient&quot;)"></circle><path class="node_icon__JUJP9" clip-rule="evenodd" d="M8.5 0C8.5 0 4.58642 3.74805 3.94122 4.39717C3.86128 4.4776 3.84989 4.60224 3.91398 4.69539C3.97806 4.78854 4.09993 4.82451 4.20557 4.78145L7.90537 3.27345L11.7747 9.36041C11.8406 9.46403 11.9758 9.50133 12.0869 9.44651C12.1979 9.39169 12.2483 9.26276 12.2032 9.1489C11.7103 7.90508 8.5 0 8.5 0ZM6.29304 6.03867C6.35522 5.93334 6.32602 5.79881 6.22554 5.72763C6.12505 5.65645 5.98605 5.67185 5.90418 5.76322C5.12486 6.633 0 12.5 0 12.5C0 12.5 5.18613 13.803 6.03089 13.9939C6.14204 14.0191 6.25587 13.964 6.30355 13.8621C6.35122 13.7603 6.31967 13.6394 6.22796 13.5728L3.1616 11.3431L6.29304 6.03867ZM14.054 7.5893C14.016 7.47964 13.9029 7.4131 13.7867 7.43203C13.6705 7.45096 13.5853 7.5498 13.5853 7.66564V11.3824L6.45275 11.5197C6.32824 11.5221 6.22613 11.6175 6.2173 11.7396C6.20846 11.8618 6.2958 11.9704 6.41871 11.9901C7.68171 12.1927 16 13.5728 16 13.5728C16 13.5728 14.3311 8.38966 14.054 7.5893Z" fill="#666666" fill-rule="evenodd" transform="translate(250.78679656440357, 72) "></path><circle class="node_dot__GSOQ_" cx="258.7867965644036" cy="80" fill="#666666" r="8"></circle></g></g><g data-testid="deploy-node-0-5-dddl"><g opacity="1"><g id="dddl05"><path d="M 400 80 A 0 400 0 0 0 400 0M 400 160 A 0 400 0 0 0 400 80M 400 240 A 0 400 0 0 0 400 160M400,240 h-112.82" fill="none" stroke="url(&quot;#dddl05-gradient&quot;)" stroke-linecap="round" stroke-width="2px" vector-effect="non-scaling-stroke"><animate attributeName="opacity" dur="4.5s" id="opacity-dddl05" keyTimes="0;0.111;0.222;0.333;0.444;0.556;0.667;1" repeatCount="indefinite" values="0;1;1;1;1;1;0;0" stroke="url(&quot;#dddl05-gradient&quot;)" fill="none" stroke-width="2px"></animate></path><defs><radialGradient cx="100" cy="100" gradientUnits="userSpaceOnUse" id="dddl05-gradient" r="0"><stop offset="0" stop-color="#45DEC4"></stop><stop offset="0.4" stop-color="#45DEC4"></stop><stop offset="1" stop-color="#45DEC4" stop-opacity="0"></stop><animate attributeName="cx" dur="4.5s" id="cx-dddl05" keyTimes="0;0.111;0.222;0.333;0.444;0.556;0.667;1" repeatCount="indefinite" values="400;400;400;400;400;287.18;287.18;0"></animate><animate attributeName="cy" dur="4.5s" id="cy-dddl05" keyTimes="0;0.111;0.222;0.333;0.444;0.556;0.667;1" repeatCount="indefinite" values="0;0;80;160;240;240;240;0"></animate><animate attributeName="r" dur="4.5s" id="r-dddl05" keyTimes="0;0.111;0.222;0.333;0.444;0.556;0.667;1" repeatCount="indefinite" values="0;120;120;120;120;120;0;0"></animate></radialGradient></defs></g></g><g data-testid="node"><g opacity="1"><circle cx="287.17974664711625" cy="240" fill="none" r="0" stroke="#45DEC4" stroke-width="2px"><animate attributeName="r" dur="4.5s" id="r-:R3baikdtmaenla:-r-pulse" keyTimes="0;0.167;0.333;0.5;0.667;1" repeatCount="indefinite" values="0;12;18;24;0;0" stroke="#45DEC4" fill="none" stroke-width="2px"></animate><animate attributeName="opacity" dur="4.5s" id="opacity-:R3baikdtmaenla:-opacity-pulse" keyTimes="0;0.167;0.333;0.5;0.667;1" repeatCount="indefinite" values="0;1;0.5;0;0;0" stroke="#45DEC4" fill="none" stroke-width="2px"></animate></circle></g><circle class="node_node__OmZxm" cx="287.17974664711625" cy="240" fill="#FFFFFF" r="16" stroke="url(&quot;#globe-gradient&quot;)"></circle><path class="node_icon__JUJP9" clip-rule="evenodd" d="M8.5 0C8.5 0 4.58642 3.74805 3.94122 4.39717C3.86128 4.4776 3.84989 4.60224 3.91398 4.69539C3.97806 4.78854 4.09993 4.82451 4.20557 4.78145L7.90537 3.27345L11.7747 9.36041C11.8406 9.46403 11.9758 9.50133 12.0869 9.44651C12.1979 9.39169 12.2483 9.26276 12.2032 9.1489C11.7103 7.90508 8.5 0 8.5 0ZM6.29304 6.03867C6.35522 5.93334 6.32602 5.79881 6.22554 5.72763C6.12505 5.65645 5.98605 5.67185 5.90418 5.76322C5.12486 6.633 0 12.5 0 12.5C0 12.5 5.18613 13.803 6.03089 13.9939C6.14204 14.0191 6.25587 13.964 6.30355 13.8621C6.35122 13.7603 6.31967 13.6394 6.22796 13.5728L3.1616 11.3431L6.29304 6.03867ZM14.054 7.5893C14.016 7.47964 13.9029 7.4131 13.7867 7.43203C13.6705 7.45096 13.5853 7.5498 13.5853 7.66564V11.3824L6.45275 11.5197C6.32824 11.5221 6.22613 11.6175 6.2173 11.7396C6.20846 11.8618 6.2958 11.9704 6.41871 11.9901C7.68171 12.1927 16 13.5728 16 13.5728C16 13.5728 14.3311 8.38966 14.054 7.5893Z" fill="#666666" fill-rule="evenodd" transform="translate(279.17974664711625, 232) "></path><circle class="node_dot__GSOQ_" cx="287.17974664711625" cy="240" fill="#666666" r="8"></circle></g></g></g><defs><linearGradient gradientUnits="userSpaceOnUse" id="globe-gradient" x1="0" x2="0" y1="0" y2="400"><stop offset="0%" stop-color="var(--guide-color)"></stop><stop offset="100%" stop-color="var(--guide-color)"></stop></linearGradient></defs></svg>